Coordinates
version=1
nRows=10
nColumns=34
inDegrees=yes

Units are S.I. units (second, meters, Newtons, ...)
If the header above contains a line with 'inDegrees', this indicates whether rotational values are in degrees (yes) or radians (no).

endheader
time	pelvis_tilt	pelvis_list	pelvis_rotation	pelvis_tx	pelvis_ty	pelvis_tz	hip_flexion_r	hip_adduction_r	hip_rotation_r	knee_angle_r	ankle_angle_r	subtalar_angle_r	mtp_angle_r	hip_flexion_l	hip_adduction_l	hip_rotation_l	knee_angle_l	ankle_angle_l	subtalar_angle_l	mtp_angle_l	lumbar_extension	lumbar_bending	lumbar_rotation	arm_flex_r	arm_add_r	arm_rot_r	elbow_flex_r	pro_sup_r	arm_flex_l	arm_add_l	arm_rot_l	elbow_flex_l	pro_sup_l
      2.75000000	     -3.84286195	      0.40902387	     -4.70812535	      1.69614494	      0.87114894	     -0.00300680	      1.47190001	     -4.34075075	     -2.03891366	      0.00000000	      2.15014314	    -19.66727450	      0.00000000	      0.71320480	     -3.91421309	      1.72039372	      0.31265735	      2.29452355	    -10.34321622	      0.00000000	     -4.04006877	      1.15780168	     -0.01571247	      6.92181920	    -10.71196325	     42.49363118	     91.26129311	     88.99661493	      4.41972169	     -7.74200546	     30.45481453	     82.45780896	     88.63022127
      2.76666670	     -3.85819681	      0.40418860	     -4.70919709	      1.69668384	      0.87197450	     -0.00313763	      1.45733205	     -4.33479755	     -2.03442686	      0.00000000	      2.14711805	    -19.66759541	      0.00000000	      0.71259676	     -3.90966374	      1.72100702	      0.30840918	      2.30057157	    -10.34647215	      0.00000000	     -4.04217970	      1.15811145	     -0.00982561	      6.92290283	    -10.71456705	     42.49749506	     91.26294896	     88.99643559	      4.41678958	     -7.73837857	     30.46052398	     82.45831379	     88.62894822
      2.78333330	     -3.87391344	      0.40308143	     -4.70569376	      1.69735102	      0.87326046	     -0.00299854	      1.44174628	     -4.33017131	     -2.02938599	      0.00000000	      2.14280518	    -19.66704167	      0.00000000	      0.70855017	     -3.90667880	      1.72115297	      0.30684174	      2.30613810	    -10.35008401	      0.00000000	     -4.04205946	      1.16034206	     -0.00443588	      6.92255965	    -10.71767975	     42.50107905	     91.26401249	     88.99628585	      4.41161951	     -7.73323362	     30.46672356	     82.45905754	     88.62787618
      2.80000000	     -3.78139988	      0.35499815	     -4.71849645	      1.69799937	      0.87388922	     -0.00283778	      1.28109976	     -4.29769046	     -1.94145956	      0.00000000	      2.00885931	    -19.66338362	      0.00000000	      0.53611074	     -3.93048271	      1.73450348	      0.28655888	      2.42229530	    -10.43605529	      0.00000000	     -3.99330847	      1.21805533	      0.08862215	      6.82688454	    -10.85074731	     42.59617365	     91.27113375	     88.99141321	      4.22241792	     -7.60827189	     30.64119280	     82.45678722	     88.59645268
      2.81666670	     -3.78584175	      0.35513465	     -4.71665033	      1.69784778	      0.87317103	     -0.00292826	      1.27925904	     -4.29543611	     -1.94117983	      0.00000000	      2.00825950	    -19.66337348	      0.00000000	      0.53122875	     -3.92828752	      1.73381795	      0.28816333	      2.42226442	    -10.43644267	      0.00000000	     -3.99422949	      1.21804446	      0.08943526	      6.82707084	    -10.85121407	     42.59630852	     91.27107711	     88.99136469	      4.22227842	     -7.60870325	     30.64135424	     82.45641408	     88.59624688
      2.83333330	     -3.79186523	      0.35590101	     -4.71393913	      1.69754073	      0.87232201	     -0.00314714	      1.27734957	     -4.29288956	     -1.94088752	      0.00000000	      2.00754958	    -19.66329708	      0.00000000	      0.52385966	     -3.92625397	      1.73265390	      0.29082529	      2.42215038	    -10.43700235	      0.00000000	     -3.99477358	      1.21776316	      0.09031429	      6.82712714	    -10.85176534	     42.59636785	     91.27096525	     88.99131784	      4.22161422	     -7.60918393	     30.64157858	     82.45593726	     88.59605885
      2.85000000	     -3.77696558	      0.34926815	     -4.64122353	      1.69732607	      0.87243784	     -0.00333906	      1.25104955	     -4.30569024	     -1.93334559	      0.00000000	      1.97514966	    -19.67182124	      0.00000000	      0.50328045	     -3.90711603	      1.67952263	      0.26378204	      2.42578992	    -10.47524272	      0.00000000	     -4.00429038	      1.22366288	      0.11086926	      6.84518338	    -10.89878084	     42.58349258	     91.27270676	     88.98821875	      4.19582396	     -7.60350102	     30.66022626	     82.44081489	     88.58691828
      2.86666670	     -3.77855344	      0.34449024	     -4.64078277	      1.69732030	      0.87331763	     -0.00316836	      1.25405268	     -4.30780533	     -1.93365427	      0.00000000	      1.97489225	    -19.67244396	      0.00000000	      0.50089542	     -3.90473406	      1.67915504	      0.26453509	      2.42572114	    -10.47574333	      0.00000000	     -4.00392450	      1.22369694	      0.11038581	      6.84539882	    -10.89961501	     42.58311640	     91.27299145	     88.98815550	      4.19567870	     -7.60285378	     30.66070814	     82.44072255	     88.58675427
      2.88333330	     -3.76750818	      0.33835672	     -4.64196778	      1.69720702	      0.87404046	     -0.00328689	      1.26877575	     -4.30099549	     -1.93531402	      0.00000000	      1.97287269	    -19.67487503	      0.00000000	      0.49270105	     -3.89273570	      1.67642004	      0.26559458	      2.42486366	    -10.47794350	      0.00000000	     -4.00409706	      1.22277635	      0.10752067	      6.84670665	    -10.90358162	     42.58045287	     91.27424604	     88.98779520	      4.19326530	     -7.59981076	     30.66353053	     82.43892158	     88.58592734
      2.90000000	     -3.76017911	      0.32663873	     -4.64776496	      1.69719962	      0.87433788	     -0.00372418	      1.27642300	     -4.30230738	     -1.93742966	      0.00000000	      1.96875199	    -19.67794610	      0.00000000	      0.48708655	     -3.88003842	      1.67074706	      0.26311800	      2.42352926	    -10.48195917	      0.00000000	     -4.00755457	      1.22164225	      0.10174234	      6.85057851	    -10.90999314	     42.57435305	     91.27674034	     88.98712418	      4.18961726	     -7.59544821	     30.66768095	     82.43483756	     88.58459835
